<?xml version="1.0" encoding="UTF-8" standalone="no"?>
<!-- Created with Inkscape (http://www.inkscape.org/) -->

<svg
   xmlns:dc="http://purl.org/dc/elements/1.1/"
   xmlns:cc="http://creativecommons.org/ns#"
   xmlns:rdf="http://www.w3.org/1999/02/22-rdf-syntax-ns#"
   xmlns:svg="http://www.w3.org/2000/svg"
   xmlns="http://www.w3.org/2000/svg"
   xmlns:sodipodi="http://sodipodi.sourceforge.net/DTD/sodipodi-0.dtd"
   xmlns:inkscape="http://www.inkscape.org/namespaces/inkscape"
   width="256"
   height="256"
   viewBox="0 0 256 256"
   id="svg2"
   version="1.1"
   inkscape:version="0.91 r13725"
   sodipodi:docname="forum.svg">
  <defs
     id="defs4" />
  <sodipodi:namedview
     id="base"
     pagecolor="#ffffff"
     bordercolor="#666666"
     borderopacity="1.0"
     inkscape:pageopacity="0.0"
     inkscape:pageshadow="2"
     inkscape:zoom="1.4"
     inkscape:cx="217.63662"
     inkscape:cy="93.688175"
     inkscape:document-units="px"
     inkscape:current-layer="layer1"
     showgrid="false"
     units="px"
     inkscape:window-width="1366"
     inkscape:window-height="715"
     inkscape:window-x="0"
     inkscape:window-y="0"
     inkscape:window-maximized="1" />
  <metadata
     id="metadata7">
    <rdf:RDF>
      <cc:Work
         rdf:about="">
        <dc:format>image/svg+xml</dc:format>
        <dc:type
           rdf:resource="http://purl.org/dc/dcmitype/StillImage" />
        <dc:title></dc:title>
      </cc:Work>
    </rdf:RDF>
  </metadata>
  <g
     inkscape:label="Layer 1"
     inkscape:groupmode="layer"
     id="layer1"
     transform="translate(0,-796.36216)">
    <path
       style="fill:#ffffff;fill-rule:evenodd;stroke:#000000;stroke-width:14.6410923;stroke-linecap:butt;stroke-linejoin:round;stroke-miterlimit:4;stroke-dasharray:none;stroke-opacity:1"
       d="m 163.38394,904.08473 c -23.29383,17.93261 -26.99127,39.93236 -36.78947,62.30182 30.9352,25.08087 86.08859,29.45619 118.8725,-1.29412 -7.88785,-23.54035 -13.00264,-38.39173 -33.2769,-59.15897"
       id="path4294-7"
       inkscape:connector-curvature="0"
       sodipodi:nodetypes="cccc" />
    <path
       style="fill:#ffffff;fill-rule:evenodd;stroke:#000000;stroke-width:17.24687958;stroke-linecap:butt;stroke-linejoin:round;stroke-miterlimit:4;stroke-dasharray:none;stroke-opacity:1"
       d="m 55.519975,919.32702 c -27.439612,21.12415 -31.795114,47.03935 -43.337174,73.3901 36.440976,29.54478 101.410429,34.69868 140.029159,-1.52446 -9.29172,-27.72998 -15.31683,-45.22453 -39.19946,-69.68789"
       id="path4294"
       inkscape:connector-curvature="0"
       sodipodi:nodetypes="cccc" />
    <path
       style="fill:#ffffff;fill-opacity:1;stroke:#000000;stroke-width:14.6410923;stroke-linecap:round;stroke-linejoin:round;stroke-miterlimit:4;stroke-dasharray:none;stroke-opacity:1"
       id="path4279-9"
       sodipodi:type="arc"
       sodipodi:cx="188.67982"
       sodipodi:cy="874.4646"
       sodipodi:rx="39.946117"
       sodipodi:ry="39.945984"
       sodipodi:start="1.5707963"
       sodipodi:end="1.5547951"
       sodipodi:open="true"
       d="m 188.67983,914.41058 a 39.946117,39.945984 0 0 1 -39.9458,-39.78618 39.946117,39.945984 0 0 1 39.6262,-40.10451 39.946117,39.945984 0 0 1 40.26284,39.46533 39.946117,39.945984 0 0 1 -39.30409,40.42025" />
    <path
       style="fill:#ffffff;fill-opacity:1;stroke:#000000;stroke-width:17.24687958;stroke-linecap:round;stroke-linejoin:round;stroke-miterlimit:4;stroke-dasharray:none;stroke-opacity:1"
       id="path4279"
       sodipodi:type="arc"
       sodipodi:cx="85.31797"
       sodipodi:cy="884.43518"
       sodipodi:rx="47.055634"
       sodipodi:ry="47.055477"
       sodipodi:start="1.5707963"
       sodipodi:end="1.5547951"
       sodipodi:open="true"
       d="M 85.317972,931.49066 A 47.055634,47.055477 0 0 1 38.262713,884.62342 47.055634,47.055477 0 0 1 84.9415,837.38121 a 47.055634,47.055477 0 0 1 47.42872,46.48927 47.055634,47.055477 0 0 1 -46.299334,47.61415" />
  </g>
</svg>
